<?xml version="1.0" encoding="utf-8"?>
<!-- Generator: Adobe Illustrator 17.1.0, SVG Export Plug-In . SVG Version: 6.00 Build 0)  -->

<svg version="1.1" id="Layer_1" xmlns="http://www.w3.org/2000/svg" xmlns:xlink="http://www.w3.org/1999/xlink" x="0px" y="0px"
	 width="396.5px" height="271.4px" viewBox="0 0 396.5 271.4" enable-background="new 0 0 396.5 271.4" xml:space="preserve">
<ellipse fill="none" stroke="#000000" cx="112.7" cy="229.3" rx="40.4" ry="40.3"/>
<polygon fill="none" stroke="#000000" points="199.9,230 112.8,229.8 140.9,160.2 199.9,160.2 "/>
<g>
	<g>
		<g>
			<g>
				<g>
					<g enable-background="new    ">
						<path d="M0.8,13.9V6h3c0.6,0,1.1,0.1,1.4,0.2S5.9,6.6,6.1,7c0.2,0.3,0.3,0.7,0.3,1c0,0.3-0.1,0.7-0.3,1
							C5.9,9.2,5.6,9.5,5.3,9.7c0.5,0.1,0.8,0.4,1.1,0.7c0.3,0.3,0.4,0.7,0.4,1.2c0,0.4-0.1,0.7-0.2,1s-0.3,0.6-0.6,0.7
							s-0.5,0.3-0.9,0.4c-0.3,0.1-0.8,0.1-1.3,0.1H0.8z M1.8,9.3h1.7c0.5,0,0.8,0,1-0.1C4.8,9.1,5,9,5.1,8.8s0.2-0.4,0.2-0.7
							c0-0.3-0.1-0.5-0.2-0.7C5,7.2,4.8,7.1,4.6,7C4.4,6.9,4,6.9,3.4,6.9H1.8V9.3z M1.8,12.9h2c0.3,0,0.6,0,0.7,0
							c0.2,0,0.4-0.1,0.6-0.2c0.2-0.1,0.3-0.2,0.4-0.4c0.1-0.2,0.2-0.4,0.2-0.7c0-0.3-0.1-0.5-0.2-0.8c-0.2-0.2-0.4-0.4-0.6-0.5
							c-0.3-0.1-0.7-0.1-1.2-0.1H1.8V12.9z"/>
						<path d="M7.9,10c0-1.3,0.4-2.3,1.1-3.1c0.7-0.7,1.6-1.1,2.7-1.1c0.7,0,1.4,0.2,2,0.5c0.6,0.3,1,0.8,1.3,1.5s0.5,1.3,0.5,2.1
							c0,0.8-0.2,1.5-0.5,2.1c-0.3,0.6-0.8,1.1-1.4,1.4c-0.6,0.3-1.2,0.5-1.9,0.5c-0.7,0-1.4-0.2-2-0.5s-1-0.8-1.3-1.5
							S7.9,10.7,7.9,10z M8.9,10c0,0.9,0.3,1.7,0.8,2.2c0.5,0.5,1.1,0.8,1.9,0.8c0.8,0,1.4-0.3,1.9-0.8s0.8-1.3,0.8-2.3
							c0-0.6-0.1-1.2-0.3-1.7c-0.2-0.5-0.5-0.8-1-1.1c-0.4-0.3-0.9-0.4-1.4-0.4c-0.7,0-1.4,0.3-1.9,0.8C9.2,8,8.9,8.9,8.9,10z"/>
						<path d="M16.7,13.9V6h3c0.5,0,0.9,0,1.2,0.1c0.4,0.1,0.7,0.2,1,0.4s0.5,0.4,0.6,0.8c0.2,0.3,0.2,0.7,0.2,1.1
							c0,0.7-0.2,1.2-0.6,1.7c-0.4,0.5-1.2,0.7-2.3,0.7h-2v3.2H16.7z M17.8,9.7h2c0.7,0,1.2-0.1,1.4-0.4c0.3-0.3,0.4-0.6,0.4-1.1
							c0-0.3-0.1-0.6-0.2-0.8S21,7.1,20.8,7c-0.2,0-0.5-0.1-1-0.1h-2V9.7z"/>
						<path d="M26.1,13.9V6.9h-2.6V6h6.2v0.9h-2.6v6.9H26.1z"/>
						<path d="M30.8,13.9V6h1.1l4.1,6.2V6h1v7.9h-1.1l-4.1-6.2v6.2H30.8z"/>
						<path d="M38.9,13.9v-1.1H40v1.1c0,0.4-0.1,0.7-0.2,1c-0.1,0.2-0.4,0.4-0.7,0.6L38.8,15c0.2-0.1,0.4-0.2,0.5-0.4
							c0.1-0.2,0.2-0.4,0.2-0.7H38.9z"/>
						<path d="M41.7,13.9V6h1v3.9L46.7,6h1.4l-3.3,3.2l3.4,4.7h-1.4l-2.8-4l-1.3,1.3v2.7H41.7z"/>
						<path d="M49.1,13.9V6h5.7v0.9h-4.6v2.4h4.4v0.9h-4.4v2.7H55v0.9H49.1z"/>
						<path d="M56.5,13.9V6h5.7v0.9h-4.6v2.4h4.4v0.9h-4.4v2.7h4.8v0.9H56.5z"/>
					</g>
					<g enable-background="new    ">
						<path d="M63.8,13.9V6h3c0.5,0,0.9,0,1.2,0.1c0.4,0.1,0.7,0.2,1,0.4s0.5,0.4,0.6,0.8c0.2,0.3,0.2,0.7,0.2,1.1
							c0,0.7-0.2,1.2-0.6,1.7c-0.4,0.5-1.2,0.7-2.3,0.7h-2v3.2H63.8z M64.9,9.7h2c0.7,0,1.2-0.1,1.4-0.4c0.3-0.3,0.4-0.6,0.4-1.1
							c0-0.3-0.1-0.6-0.2-0.8S68.1,7.1,67.9,7c-0.2,0-0.5-0.1-1-0.1h-2V9.7z"/>
					</g>
					<g enable-background="new    ">
						<path d="M69.8,13.9v-1.1H71v1.1c0,0.4-0.1,0.7-0.2,1c-0.1,0.2-0.4,0.4-0.7,0.6L69.8,15c0.2-0.1,0.4-0.2,0.5-0.4
							c0.1-0.2,0.2-0.4,0.2-0.7H69.8z"/>
						<path d="M75,13.9v-3.3L72,6h1.3l1.6,2.4c0.3,0.4,0.6,0.9,0.8,1.3c0.2-0.4,0.5-0.9,0.9-1.4L78,6h1.2L76,10.5v3.3H75z"/>
						<path d="M80.1,13.9V6h5.7v0.9h-4.6v2.4h4.4v0.9h-4.4v2.7H86v0.9H80.1z"/>
						<path d="M87.1,11.3l1-0.1c0,0.4,0.2,0.7,0.3,1s0.4,0.5,0.8,0.6s0.8,0.2,1.2,0.2c0.4,0,0.7-0.1,1.1-0.2s0.5-0.3,0.7-0.5
							c0.1-0.2,0.2-0.4,0.2-0.7c0-0.2-0.1-0.5-0.2-0.6c-0.1-0.2-0.4-0.3-0.7-0.5c-0.2-0.1-0.7-0.2-1.4-0.4c-0.7-0.2-1.2-0.3-1.5-0.5
							c-0.4-0.2-0.7-0.4-0.8-0.7c-0.2-0.3-0.3-0.6-0.3-1c0-0.4,0.1-0.8,0.3-1.1s0.6-0.6,1-0.8c0.4-0.2,0.9-0.3,1.4-0.3
							c0.6,0,1.1,0.1,1.5,0.3c0.4,0.2,0.8,0.5,1,0.8s0.4,0.8,0.4,1.2l-1,0.1c-0.1-0.5-0.2-0.9-0.5-1.1c-0.3-0.3-0.8-0.4-1.4-0.4
							c-0.6,0-1.1,0.1-1.4,0.3c-0.3,0.2-0.4,0.5-0.4,0.8c0,0.3,0.1,0.5,0.3,0.7c0.2,0.2,0.7,0.4,1.6,0.6c0.8,0.2,1.4,0.4,1.7,0.5
							c0.5,0.2,0.8,0.5,1,0.8c0.2,0.3,0.3,0.7,0.3,1.1c0,0.4-0.1,0.8-0.4,1.2c-0.2,0.4-0.6,0.7-1,0.9c-0.4,0.2-1,0.3-1.5,0.3
							c-0.7,0-1.3-0.1-1.8-0.3s-0.9-0.5-1.1-0.9C87.2,12.3,87.1,11.9,87.1,11.3z"/>
					</g>
				</g>
			</g>
		</g>
	</g>
	<g>
		<g>
			<g>
				<g>
					<g enable-background="new    ">
						<path d="M0,26.9L3,19h1.1l3.2,7.9H6.2l-0.9-2.4H2l-0.9,2.4H0z M2.3,23.6h2.7l-0.8-2.2c-0.3-0.7-0.4-1.2-0.6-1.6
							c-0.1,0.5-0.2,1-0.4,1.5L2.3,23.6z"/>
						<path d="M8.4,26.9V19h1v7.9H8.4z"/>
						<path d="M11.2,26.9V19h1.1l4.1,6.2V19h1v7.9h-1.1l-4.1-6.2v6.2H11.2z"/>
						<path d="M18.3,26.9l3-7.9h1.1l3.2,7.9h-1.2l-0.9-2.4h-3.3l-0.9,2.4H18.3z M20.6,23.6h2.7l-0.8-2.2c-0.3-0.7-0.4-1.2-0.6-1.6
							c-0.1,0.5-0.2,1-0.4,1.5L20.6,23.6z"/>
						<path d="M26.6,26.9v-1.1h1.1v1.1c0,0.4-0.1,0.7-0.2,1c-0.1,0.2-0.4,0.4-0.7,0.6L26.6,28c0.2-0.1,0.4-0.2,0.5-0.4
							c0.1-0.2,0.2-0.4,0.2-0.7H26.6z"/>
						<path d="M32.8,26.9h-1v-6.2c-0.2,0.2-0.5,0.4-0.9,0.7c-0.4,0.2-0.7,0.4-1,0.5v-0.9c0.5-0.3,1-0.6,1.4-0.9
							c0.4-0.4,0.7-0.7,0.9-1.1h0.6V26.9z"/>
						<path d="M35.8,26.9v-1.1h1.1v1.1c0,0.4-0.1,0.7-0.2,1c-0.1,0.2-0.4,0.4-0.7,0.6L35.7,28c0.2-0.1,0.4-0.2,0.5-0.4
							c0.1-0.2,0.2-0.4,0.2-0.7H35.8z"/>
						<path d="M43.4,25.9v0.9h-5.2c0-0.2,0-0.5,0.1-0.7c0.1-0.4,0.3-0.7,0.6-1c0.3-0.3,0.7-0.7,1.3-1.2c0.9-0.7,1.4-1.3,1.7-1.7
							c0.3-0.4,0.5-0.8,0.5-1.2c0-0.4-0.1-0.7-0.4-1s-0.6-0.4-1.1-0.4c-0.5,0-0.8,0.1-1.1,0.4c-0.3,0.3-0.4,0.7-0.4,1.2l-1-0.1
							c0.1-0.7,0.3-1.3,0.8-1.7s1-0.6,1.8-0.6c0.8,0,1.4,0.2,1.8,0.6c0.4,0.4,0.7,0.9,0.7,1.6c0,0.3-0.1,0.6-0.2,0.9
							c-0.1,0.3-0.3,0.6-0.6,1c-0.3,0.3-0.8,0.8-1.5,1.4c-0.6,0.5-1,0.8-1.1,1c-0.2,0.2-0.3,0.3-0.4,0.5H43.4z"/>
					</g>
				</g>
			</g>
		</g>
	</g>
</g>
<g>
	<g>
		<g>
			<g>
				<g enable-background="new    ">
					<path d="M277.4,129.3c-0.5-0.7-1-1.5-1.4-2.4c-0.4-0.9-0.6-1.8-0.6-2.8c0-0.9,0.1-1.7,0.4-2.4c0.3-0.9,0.8-1.8,1.5-2.7h0.7
						c-0.4,0.7-0.7,1.3-0.9,1.6c-0.2,0.5-0.4,1-0.5,1.5c-0.2,0.7-0.2,1.3-0.2,2c0,1.7,0.5,3.4,1.6,5.2H277.4z"/>
					<path d="M278.5,127l3-7.9h1.1l3.2,7.9h-1.2l-0.9-2.4h-3.3l-0.9,2.4H278.5z M280.8,123.7h2.7l-0.8-2.2c-0.3-0.7-0.4-1.2-0.6-1.6
						c-0.1,0.5-0.2,1-0.4,1.5L280.8,123.7z"/>
					<path d="M290,127h-1v-6.2c-0.2,0.2-0.5,0.4-0.9,0.7c-0.4,0.2-0.7,0.4-1,0.5V121c0.5-0.3,1-0.6,1.4-0.9c0.4-0.4,0.7-0.7,0.9-1.1
						h0.6V127z"/>
					<path d="M299.5,126.3c-0.4,0.3-0.7,0.5-1,0.6c-0.3,0.1-0.7,0.2-1.1,0.2c-0.6,0-1.1-0.2-1.4-0.5c-0.3-0.3-0.5-0.7-0.5-1.2
						c0-0.3,0.1-0.5,0.2-0.8s0.3-0.4,0.5-0.6s0.4-0.2,0.7-0.3c0.2,0,0.5-0.1,0.9-0.1c0.8-0.1,1.4-0.2,1.7-0.3c0-0.1,0-0.2,0-0.3
						c0-0.4-0.1-0.7-0.3-0.8c-0.2-0.2-0.6-0.3-1.1-0.3c-0.5,0-0.8,0.1-1,0.2c-0.2,0.2-0.4,0.4-0.5,0.8l-0.9-0.1
						c0.1-0.4,0.2-0.7,0.4-1c0.2-0.2,0.5-0.4,0.9-0.6c0.4-0.1,0.8-0.2,1.3-0.2c0.5,0,0.9,0.1,1.2,0.2c0.3,0.1,0.5,0.3,0.7,0.4
						c0.1,0.2,0.2,0.4,0.3,0.7c0,0.2,0,0.5,0,0.9v1.3c0,0.9,0,1.5,0.1,1.7c0,0.2,0.1,0.5,0.2,0.7h-1
						C299.6,126.8,299.5,126.5,299.5,126.3z M299.4,124.1c-0.4,0.1-0.9,0.3-1.6,0.4c-0.4,0.1-0.7,0.1-0.8,0.2
						c-0.2,0.1-0.3,0.2-0.4,0.3c-0.1,0.1-0.1,0.3-0.1,0.5c0,0.3,0.1,0.5,0.3,0.6c0.2,0.2,0.5,0.3,0.9,0.3c0.4,0,0.7-0.1,1-0.2
						c0.3-0.2,0.5-0.4,0.6-0.7c0.1-0.2,0.2-0.5,0.2-1V124.1z"/>
					<path d="M301.9,127v-5.7h0.9v0.8c0.4-0.6,1-0.9,1.8-0.9c0.3,0,0.7,0.1,0.9,0.2s0.5,0.3,0.6,0.5c0.1,0.2,0.2,0.4,0.3,0.7
						c0,0.2,0.1,0.5,0.1,0.9v3.5h-1v-3.5c0-0.4,0-0.7-0.1-0.9c-0.1-0.2-0.2-0.4-0.4-0.5c-0.2-0.1-0.4-0.2-0.7-0.2
						c-0.4,0-0.8,0.1-1.1,0.4c-0.3,0.3-0.4,0.8-0.4,1.5v3.1H301.9z"/>
					<path d="M311.7,127v-0.7c-0.4,0.6-0.9,0.8-1.6,0.8c-0.5,0-0.9-0.1-1.3-0.4c-0.4-0.3-0.7-0.6-0.9-1c-0.2-0.4-0.3-1-0.3-1.5
						c0-0.6,0.1-1.1,0.3-1.5c0.2-0.5,0.5-0.8,0.9-1.1c0.4-0.2,0.8-0.4,1.3-0.4c0.3,0,0.7,0.1,0.9,0.2c0.3,0.1,0.5,0.3,0.7,0.6v-2.8
						h1v7.9H311.7z M308.6,124.1c0,0.7,0.2,1.3,0.5,1.6c0.3,0.4,0.7,0.5,1.1,0.5c0.4,0,0.8-0.2,1.1-0.5c0.3-0.3,0.4-0.9,0.4-1.6
						c0-0.8-0.2-1.4-0.5-1.7s-0.7-0.5-1.1-0.5c-0.4,0-0.8,0.2-1.1,0.5C308.8,122.8,308.6,123.4,308.6,124.1z"/>
				</g>
				<g enable-background="new    ">
					<path d="M315.8,127l3-7.9h1.1l3.2,7.9H322l-0.9-2.4h-3.3l-0.9,2.4H315.8z M318.1,123.7h2.7l-0.8-2.2c-0.3-0.7-0.4-1.2-0.6-1.6
						c-0.1,0.5-0.2,1-0.4,1.5L318.1,123.7z"/>
					<path d="M328.7,126v0.9h-5.2c0-0.2,0-0.5,0.1-0.7c0.1-0.4,0.3-0.7,0.6-1c0.3-0.3,0.7-0.7,1.3-1.2c0.9-0.7,1.4-1.3,1.7-1.7
						c0.3-0.4,0.5-0.8,0.5-1.2c0-0.4-0.1-0.7-0.4-1c-0.3-0.3-0.6-0.4-1.1-0.4c-0.5,0-0.8,0.1-1.1,0.4s-0.4,0.7-0.4,1.2l-1-0.1
						c0.1-0.7,0.3-1.3,0.8-1.7c0.4-0.4,1-0.6,1.8-0.6c0.8,0,1.4,0.2,1.8,0.6s0.7,0.9,0.7,1.6c0,0.3-0.1,0.6-0.2,0.9
						c-0.1,0.3-0.3,0.6-0.6,1c-0.3,0.3-0.8,0.8-1.5,1.4c-0.6,0.5-1,0.8-1.1,1c-0.2,0.2-0.3,0.3-0.4,0.5H328.7z"/>
					<path d="M333.1,127v-5.7h0.9v0.8c0.4-0.6,1-0.9,1.8-0.9c0.3,0,0.7,0.1,0.9,0.2s0.5,0.3,0.6,0.5c0.1,0.2,0.2,0.4,0.3,0.7
						c0,0.2,0.1,0.5,0.1,0.9v3.5h-1v-3.5c0-0.4,0-0.7-0.1-0.9c-0.1-0.2-0.2-0.4-0.4-0.5c-0.2-0.1-0.4-0.2-0.7-0.2
						c-0.4,0-0.8,0.1-1.1,0.4c-0.3,0.3-0.4,0.8-0.4,1.5v3.1H333.1z"/>
					<path d="M338.8,124.1c0-1.1,0.3-1.8,0.9-2.3c0.5-0.4,1.1-0.6,1.8-0.6c0.8,0,1.4,0.3,1.9,0.8c0.5,0.5,0.7,1.2,0.7,2.1
						c0,0.7-0.1,1.3-0.3,1.7c-0.2,0.4-0.5,0.7-1,1c-0.4,0.2-0.9,0.3-1.4,0.3c-0.8,0-1.4-0.3-1.9-0.8S338.8,125.1,338.8,124.1z
						 M339.8,124.1c0,0.7,0.2,1.3,0.5,1.6c0.3,0.4,0.7,0.5,1.2,0.5c0.5,0,0.9-0.2,1.2-0.5c0.3-0.4,0.5-0.9,0.5-1.7
						c0-0.7-0.2-1.2-0.5-1.6c-0.3-0.4-0.7-0.5-1.2-0.5c-0.5,0-0.9,0.2-1.2,0.5C340,122.8,339.8,123.4,339.8,124.1z"/>
					<path d="M347.4,126.1l0.1,0.9c-0.3,0.1-0.5,0.1-0.7,0.1c-0.4,0-0.6-0.1-0.8-0.2s-0.3-0.3-0.4-0.4c-0.1-0.2-0.1-0.6-0.1-1.1V122
						h-0.7v-0.8h0.7v-1.4l1-0.6v2h1v0.8h-1v3.3c0,0.3,0,0.5,0.1,0.5s0.1,0.1,0.2,0.2c0.1,0,0.2,0.1,0.3,0.1
						C347.1,126.1,347.2,126.1,347.4,126.1z"/>
					<path d="M355.1,124.9l1,0.1c-0.1,0.7-0.4,1.2-0.8,1.5s-1,0.6-1.6,0.6c-0.8,0-1.4-0.3-1.9-0.8c-0.5-0.5-0.7-1.2-0.7-2.2
						c0-0.6,0.1-1.2,0.3-1.6s0.5-0.8,0.9-1s0.9-0.3,1.4-0.3c0.6,0,1.1,0.2,1.5,0.5c0.4,0.3,0.6,0.8,0.8,1.3l-0.9,0.1
						c-0.1-0.4-0.2-0.7-0.5-0.9s-0.5-0.3-0.8-0.3c-0.5,0-0.9,0.2-1.2,0.5c-0.3,0.3-0.5,0.9-0.5,1.7c0,0.8,0.1,1.3,0.4,1.7
						c0.3,0.3,0.7,0.5,1.1,0.5c0.4,0,0.7-0.1,1-0.3S355.1,125.4,355.1,124.9z"/>
					<path d="M356.9,127v-7.9h1v2.8c0.5-0.5,1-0.8,1.7-0.8c0.4,0,0.8,0.1,1.1,0.3s0.5,0.4,0.7,0.7c0.1,0.3,0.2,0.7,0.2,1.3v3.6h-1
						v-3.6c0-0.5-0.1-0.8-0.3-1.1c-0.2-0.2-0.5-0.3-0.9-0.3c-0.3,0-0.6,0.1-0.8,0.2c-0.3,0.1-0.4,0.4-0.5,0.6
						c-0.1,0.3-0.2,0.6-0.2,1.1v3.1H356.9z"/>
					<path d="M366.7,126.3c-0.4,0.3-0.7,0.5-1,0.6s-0.7,0.2-1.1,0.2c-0.6,0-1.1-0.2-1.4-0.5c-0.3-0.3-0.5-0.7-0.5-1.2
						c0-0.3,0.1-0.5,0.2-0.8s0.3-0.4,0.5-0.6s0.4-0.2,0.7-0.3c0.2,0,0.5-0.1,0.9-0.1c0.8-0.1,1.4-0.2,1.7-0.3c0-0.1,0-0.2,0-0.3
						c0-0.4-0.1-0.7-0.3-0.8c-0.2-0.2-0.6-0.3-1.1-0.3c-0.5,0-0.8,0.1-1,0.2c-0.2,0.2-0.4,0.4-0.5,0.8l-0.9-0.1
						c0.1-0.4,0.2-0.7,0.4-1c0.2-0.2,0.5-0.4,0.9-0.6c0.4-0.1,0.8-0.2,1.3-0.2c0.5,0,0.9,0.1,1.2,0.2c0.3,0.1,0.5,0.3,0.7,0.4
						c0.1,0.2,0.2,0.4,0.3,0.7c0,0.2,0,0.5,0,0.9v1.3c0,0.9,0,1.5,0.1,1.7c0,0.2,0.1,0.5,0.2,0.7h-1
						C366.8,126.8,366.8,126.5,366.7,126.3z M366.7,124.1c-0.4,0.1-0.9,0.3-1.6,0.4c-0.4,0.1-0.7,0.1-0.8,0.2
						c-0.2,0.1-0.3,0.2-0.4,0.3c-0.1,0.1-0.1,0.3-0.1,0.5c0,0.3,0.1,0.5,0.3,0.6s0.5,0.3,0.9,0.3c0.4,0,0.7-0.1,1-0.2
						c0.3-0.2,0.5-0.4,0.6-0.7c0.1-0.2,0.2-0.5,0.2-1V124.1z"/>
					<path d="M369.1,127v-5.7h0.9v0.8c0.4-0.6,1-0.9,1.8-0.9c0.3,0,0.7,0.1,0.9,0.2s0.5,0.3,0.6,0.5c0.1,0.2,0.2,0.4,0.3,0.7
						c0,0.2,0.1,0.5,0.1,0.9v3.5h-1v-3.5c0-0.4,0-0.7-0.1-0.9c-0.1-0.2-0.2-0.4-0.4-0.5c-0.2-0.1-0.4-0.2-0.7-0.2
						c-0.4,0-0.8,0.1-1.1,0.4c-0.3,0.3-0.4,0.8-0.4,1.5v3.1H369.1z"/>
					<path d="M375.1,127.4l0.9,0.1c0,0.3,0.1,0.5,0.3,0.6c0.2,0.2,0.6,0.3,1,0.3c0.4,0,0.8-0.1,1-0.3c0.2-0.2,0.4-0.4,0.5-0.8
						c0-0.2,0.1-0.6,0.1-1.2c-0.4,0.5-0.9,0.7-1.6,0.7c-0.8,0-1.4-0.3-1.8-0.8c-0.4-0.6-0.6-1.2-0.6-2c0-0.5,0.1-1,0.3-1.5
						c0.2-0.5,0.5-0.8,0.9-1.1c0.4-0.3,0.8-0.4,1.3-0.4c0.7,0,1.2,0.3,1.7,0.8v-0.7h0.9v4.9c0,0.9-0.1,1.5-0.3,1.9s-0.5,0.7-0.9,0.9
						c-0.4,0.2-0.9,0.3-1.4,0.3c-0.7,0-1.2-0.2-1.6-0.5S375.1,128.1,375.1,127.4z M375.9,124c0,0.7,0.1,1.3,0.4,1.6s0.7,0.5,1.1,0.5
						c0.4,0,0.8-0.2,1.1-0.5c0.3-0.3,0.5-0.9,0.5-1.6c0-0.7-0.2-1.2-0.5-1.6c-0.3-0.4-0.7-0.5-1.1-0.5c-0.4,0-0.8,0.2-1.1,0.5
						S375.9,123.3,375.9,124z"/>
					<path d="M385.3,125.1l1,0.1c-0.2,0.6-0.4,1-0.9,1.4c-0.4,0.3-1,0.5-1.6,0.5c-0.8,0-1.5-0.3-2-0.8c-0.5-0.5-0.7-1.2-0.7-2.2
						c0-1,0.2-1.7,0.7-2.2c0.5-0.5,1.1-0.8,1.9-0.8c0.8,0,1.4,0.3,1.9,0.8c0.5,0.5,0.7,1.3,0.7,2.2c0,0.1,0,0.1,0,0.3H382
						c0,0.6,0.2,1.1,0.5,1.4s0.7,0.5,1.2,0.5c0.4,0,0.7-0.1,0.9-0.3C384.9,125.8,385.1,125.5,385.3,125.1z M382.1,123.6h3.2
						c0-0.5-0.2-0.8-0.4-1.1c-0.3-0.4-0.7-0.6-1.2-0.6c-0.4,0-0.8,0.1-1.1,0.4C382.3,122.7,382.1,123.1,382.1,123.6z"/>
					<path d="M391.2,127v-0.7c-0.4,0.6-0.9,0.8-1.6,0.8c-0.5,0-0.9-0.1-1.3-0.4c-0.4-0.3-0.7-0.6-0.9-1c-0.2-0.4-0.3-1-0.3-1.5
						c0-0.6,0.1-1.1,0.3-1.5c0.2-0.5,0.5-0.8,0.9-1.1c0.4-0.2,0.8-0.4,1.3-0.4c0.3,0,0.7,0.1,0.9,0.2c0.3,0.1,0.5,0.3,0.7,0.6v-2.8
						h1v7.9H391.2z M388.1,124.1c0,0.7,0.2,1.3,0.5,1.6c0.3,0.4,0.7,0.5,1.1,0.5c0.4,0,0.8-0.2,1.1-0.5c0.3-0.3,0.4-0.9,0.4-1.6
						c0-0.8-0.2-1.4-0.5-1.7s-0.7-0.5-1.1-0.5c-0.4,0-0.8,0.2-1.1,0.5C388.3,122.8,388.1,123.4,388.1,124.1z"/>
					<path d="M394.2,129.3h-0.7c1.1-1.7,1.6-3.4,1.6-5.2c0-0.7-0.1-1.3-0.2-2c-0.1-0.5-0.3-1.1-0.5-1.5c-0.1-0.3-0.4-0.9-0.9-1.6
						h0.7c0.7,0.9,1.2,1.8,1.5,2.7c0.3,0.8,0.4,1.6,0.4,2.4c0,1-0.2,1.9-0.6,2.8C395.2,127.8,394.8,128.6,394.2,129.3z"/>
				</g>
			</g>
		</g>
	</g>
</g>
<g>
	<g>
		<g>
			<g>
				<g enable-background="new    ">
					<path d="M89.5,218.4l3-7.9h1.1l3.2,7.9h-1.2l-0.9-2.4h-3.3l-0.9,2.4H89.5z M91.8,215.2h2.7l-0.8-2.2c-0.3-0.7-0.4-1.2-0.6-1.6
						c-0.1,0.5-0.2,1-0.4,1.5L91.8,215.2z"/>
					<path d="M100.9,218.4h-1v-6.2c-0.2,0.2-0.5,0.4-0.9,0.7c-0.4,0.2-0.7,0.4-1,0.5v-0.9c0.5-0.3,1-0.6,1.4-0.9
						c0.4-0.4,0.7-0.7,0.9-1.1h0.6V218.4z"/>
				</g>
			</g>
		</g>
	</g>
</g>
<g>
	<g>
		<g>
			<g>
				<g enable-background="new    ">
					<path d="M165.1,189.4l3-7.9h1.1l3.2,7.9h-1.2l-0.9-2.4h-3.3l-0.9,2.4H165.1z M167.4,186.1h2.7l-0.8-2.2
						c-0.3-0.7-0.4-1.2-0.6-1.6c-0.1,0.5-0.2,1-0.4,1.5L167.4,186.1z"/>
					<path d="M178,188.4v0.9h-5.2c0-0.2,0-0.5,0.1-0.7c0.1-0.4,0.3-0.7,0.6-1c0.3-0.3,0.7-0.7,1.3-1.2c0.9-0.7,1.4-1.3,1.7-1.7
						c0.3-0.4,0.5-0.8,0.5-1.2c0-0.4-0.1-0.7-0.4-1s-0.6-0.4-1.1-0.4c-0.5,0-0.8,0.1-1.1,0.4c-0.3,0.3-0.4,0.7-0.4,1.2l-1-0.1
						c0.1-0.7,0.3-1.3,0.8-1.7s1-0.6,1.8-0.6c0.8,0,1.4,0.2,1.8,0.6c0.4,0.4,0.7,0.9,0.7,1.6c0,0.3-0.1,0.6-0.2,0.9
						c-0.1,0.3-0.3,0.6-0.6,1c-0.3,0.3-0.8,0.8-1.5,1.4c-0.6,0.5-1,0.8-1.1,1c-0.2,0.2-0.3,0.3-0.4,0.5H178z"/>
				</g>
			</g>
		</g>
	</g>
</g>
<g>
	<g>
		<g>
			<g>
				<g enable-background="new    ">
					<path d="M347.8,219.9l3-7.9h1.1l3.2,7.9H354l-0.9-2.4h-3.3l-0.9,2.4H347.8z M350.1,216.6h2.7l-0.8-2.2
						c-0.3-0.7-0.4-1.2-0.6-1.6c-0.1,0.5-0.2,1-0.4,1.5L350.1,216.6z"/>
					<path d="M355.6,217.8l1-0.1c0.1,0.5,0.3,0.9,0.6,1.2c0.3,0.2,0.6,0.4,1,0.4c0.5,0,0.8-0.2,1.2-0.5c0.3-0.3,0.5-0.7,0.5-1.2
						c0-0.4-0.1-0.8-0.4-1.1c-0.3-0.3-0.7-0.4-1.1-0.4c-0.2,0-0.4,0-0.7,0.1l0.1-0.8c0.1,0,0.1,0,0.2,0c0.4,0,0.8-0.1,1.1-0.3
						s0.5-0.5,0.5-1c0-0.4-0.1-0.6-0.4-0.9c-0.2-0.2-0.5-0.3-0.9-0.3c-0.4,0-0.7,0.1-0.9,0.4c-0.3,0.2-0.4,0.6-0.5,1.1l-1-0.2
						c0.1-0.6,0.4-1.2,0.8-1.5c0.4-0.4,0.9-0.5,1.6-0.5c0.4,0,0.8,0.1,1.2,0.3c0.4,0.2,0.6,0.4,0.8,0.8s0.3,0.7,0.3,1
						c0,0.3-0.1,0.6-0.3,0.9s-0.5,0.5-0.8,0.7c0.5,0.1,0.8,0.3,1.1,0.7s0.4,0.8,0.4,1.3c0,0.7-0.3,1.3-0.8,1.7s-1.1,0.7-1.9,0.7
						c-0.7,0-1.3-0.2-1.7-0.6C355.9,219,355.7,218.4,355.6,217.8z"/>
				</g>
			</g>
		</g>
	</g>
</g>
<g>
	<g>
		<g>
			<g>
				<g enable-background="new    ">
					<path d="M234.7,270.2c-0.5-0.7-1-1.5-1.4-2.4c-0.4-0.9-0.6-1.8-0.6-2.8c0-0.9,0.1-1.7,0.4-2.4c0.3-0.9,0.8-1.8,1.5-2.7h0.7
						c-0.4,0.7-0.7,1.3-0.9,1.6c-0.2,0.5-0.4,1-0.5,1.5c-0.2,0.7-0.2,1.3-0.2,2c0,1.7,0.5,3.4,1.6,5.2H234.7z"/>
					<path d="M235.7,267.9l3-7.9h1.1l3.2,7.9h-1.2l-0.9-2.4h-3.3l-0.9,2.4H235.7z M238,264.6h2.7l-0.8-2.2c-0.3-0.7-0.4-1.2-0.6-1.6
						c-0.1,0.5-0.2,1-0.4,1.5L238,264.6z"/>
					<path d="M247.2,267.9h-1v-6.2c-0.2,0.2-0.5,0.4-0.9,0.7c-0.4,0.2-0.7,0.4-1,0.5v-0.9c0.5-0.3,1-0.6,1.4-0.9
						c0.4-0.4,0.7-0.7,0.9-1.1h0.6V267.9z"/>
					<path d="M256.7,267.2c-0.4,0.3-0.7,0.5-1,0.6c-0.3,0.1-0.7,0.2-1.1,0.2c-0.6,0-1.1-0.2-1.4-0.5c-0.3-0.3-0.5-0.7-0.5-1.2
						c0-0.3,0.1-0.5,0.2-0.8c0.1-0.2,0.3-0.4,0.5-0.6c0.2-0.1,0.4-0.2,0.7-0.3c0.2-0.1,0.5-0.1,0.9-0.1c0.8-0.1,1.4-0.2,1.7-0.3
						c0-0.1,0-0.2,0-0.3c0-0.4-0.1-0.7-0.3-0.8c-0.2-0.2-0.6-0.3-1.1-0.3c-0.5,0-0.8,0.1-1,0.2c-0.2,0.2-0.4,0.4-0.5,0.8l-0.9-0.1
						c0.1-0.4,0.2-0.7,0.4-1c0.2-0.2,0.5-0.4,0.9-0.6c0.4-0.1,0.8-0.2,1.3-0.2c0.5,0,0.9,0.1,1.2,0.2c0.3,0.1,0.5,0.3,0.7,0.4
						c0.1,0.2,0.2,0.4,0.3,0.7c0,0.2,0,0.5,0,0.9v1.3c0,0.9,0,1.5,0.1,1.7s0.1,0.5,0.2,0.7h-1C256.8,267.7,256.7,267.4,256.7,267.2z
						 M256.6,265c-0.4,0.1-0.9,0.3-1.6,0.4c-0.4,0.1-0.7,0.1-0.8,0.2c-0.2,0.1-0.3,0.2-0.4,0.3c-0.1,0.1-0.1,0.3-0.1,0.5
						c0,0.3,0.1,0.5,0.3,0.6s0.5,0.3,0.9,0.3c0.4,0,0.7-0.1,1-0.2c0.3-0.2,0.5-0.4,0.6-0.7c0.1-0.2,0.2-0.5,0.2-1V265z"/>
					<path d="M259.1,267.9v-5.7h0.9v0.8c0.4-0.6,1-0.9,1.8-0.9c0.3,0,0.7,0.1,0.9,0.2s0.5,0.3,0.6,0.5c0.1,0.2,0.2,0.4,0.3,0.7
						c0,0.2,0.1,0.5,0.1,0.9v3.5h-1v-3.5c0-0.4,0-0.7-0.1-0.9c-0.1-0.2-0.2-0.4-0.4-0.5s-0.4-0.2-0.7-0.2c-0.4,0-0.8,0.1-1.1,0.4
						s-0.4,0.8-0.4,1.5v3.1H259.1z"/>
					<path d="M268.9,267.9v-0.7c-0.4,0.6-0.9,0.8-1.6,0.8c-0.5,0-0.9-0.1-1.3-0.4c-0.4-0.3-0.7-0.6-0.9-1c-0.2-0.5-0.3-1-0.3-1.5
						c0-0.6,0.1-1.1,0.3-1.5c0.2-0.5,0.5-0.8,0.9-1.1c0.4-0.2,0.8-0.4,1.3-0.4c0.3,0,0.6,0.1,0.9,0.2s0.5,0.3,0.7,0.6V260h1v7.9
						H268.9z M265.9,265c0,0.7,0.2,1.3,0.5,1.6c0.3,0.4,0.7,0.5,1.1,0.5c0.4,0,0.8-0.2,1.1-0.5c0.3-0.3,0.4-0.9,0.4-1.6
						c0-0.8-0.2-1.4-0.5-1.7c-0.3-0.4-0.7-0.5-1.1-0.5c-0.4,0-0.8,0.2-1.1,0.5C266,263.7,265.9,264.3,265.9,265z"/>
				</g>
				<g enable-background="new    ">
					<path d="M273.1,267.9l3-7.9h1.1l3.2,7.9h-1.2l-0.9-2.4H275l-0.9,2.4H273.1z M275.3,264.6h2.7l-0.8-2.2
						c-0.3-0.7-0.4-1.2-0.6-1.6c-0.1,0.5-0.2,1-0.4,1.5L275.3,264.6z"/>
					<path d="M285.9,266.9v0.9h-5.2c0-0.2,0-0.5,0.1-0.7c0.1-0.4,0.3-0.7,0.6-1s0.7-0.7,1.3-1.2c0.9-0.7,1.4-1.3,1.7-1.7
						c0.3-0.4,0.5-0.8,0.5-1.2c0-0.4-0.1-0.7-0.4-1c-0.3-0.3-0.6-0.4-1.1-0.4c-0.5,0-0.8,0.1-1.1,0.4s-0.4,0.7-0.4,1.2l-1-0.1
						c0.1-0.7,0.3-1.3,0.8-1.7s1-0.6,1.8-0.6c0.8,0,1.4,0.2,1.8,0.6c0.4,0.4,0.7,0.9,0.7,1.6c0,0.3-0.1,0.6-0.2,0.9
						c-0.1,0.3-0.3,0.6-0.6,1c-0.3,0.3-0.8,0.8-1.5,1.4c-0.6,0.5-1,0.8-1.1,1c-0.2,0.2-0.3,0.3-0.4,0.5H285.9z"/>
					<path d="M294,267.9v-0.7c-0.4,0.6-0.9,0.8-1.6,0.8c-0.5,0-0.9-0.1-1.3-0.4c-0.4-0.3-0.7-0.6-0.9-1c-0.2-0.5-0.3-1-0.3-1.5
						c0-0.6,0.1-1.1,0.3-1.5c0.2-0.5,0.5-0.8,0.9-1.1c0.4-0.2,0.8-0.4,1.3-0.4c0.3,0,0.7,0.1,0.9,0.2c0.3,0.1,0.5,0.3,0.7,0.6V260h1
						v7.9H294z M291,265c0,0.7,0.2,1.3,0.5,1.6c0.3,0.4,0.7,0.5,1.1,0.5c0.4,0,0.8-0.2,1.1-0.5s0.4-0.9,0.4-1.6
						c0-0.8-0.2-1.4-0.5-1.7s-0.7-0.5-1.1-0.5c-0.4,0-0.8,0.2-1.1,0.5C291.1,263.7,291,264.3,291,265z"/>
					<path d="M300.3,266l1,0.1c-0.2,0.6-0.4,1-0.9,1.4s-1,0.5-1.6,0.5c-0.8,0-1.5-0.3-2-0.8s-0.7-1.2-0.7-2.2c0-1,0.2-1.7,0.7-2.2
						c0.5-0.5,1.1-0.8,1.9-0.8c0.8,0,1.4,0.3,1.9,0.8c0.5,0.5,0.7,1.3,0.7,2.2c0,0.1,0,0.1,0,0.3h-4.3c0,0.6,0.2,1.1,0.5,1.4
						c0.3,0.3,0.7,0.5,1.2,0.5c0.4,0,0.7-0.1,0.9-0.3C300,266.7,300.2,266.4,300.3,266z M297.2,264.5h3.2c0-0.5-0.2-0.8-0.4-1.1
						c-0.3-0.4-0.7-0.6-1.2-0.6c-0.4,0-0.8,0.1-1.1,0.4C297.4,263.6,297.2,264,297.2,264.5z"/>
					<path d="M302.5,267.9V260h1v7.9H302.5z"/>
					<path d="M308.9,266l1,0.1c-0.2,0.6-0.4,1-0.9,1.4c-0.4,0.3-1,0.5-1.6,0.5c-0.8,0-1.5-0.3-2-0.8c-0.5-0.5-0.7-1.2-0.7-2.2
						c0-1,0.2-1.7,0.7-2.2c0.5-0.5,1.1-0.8,1.9-0.8c0.8,0,1.4,0.3,1.9,0.8c0.5,0.5,0.7,1.3,0.7,2.2c0,0.1,0,0.1,0,0.3h-4.3
						c0,0.6,0.2,1.1,0.5,1.4c0.3,0.3,0.7,0.5,1.2,0.5c0.4,0,0.7-0.1,0.9-0.3C308.5,266.7,308.7,266.4,308.9,266z M305.7,264.5h3.2
						c0-0.5-0.2-0.8-0.4-1.1c-0.3-0.4-0.7-0.6-1.2-0.6c-0.4,0-0.8,0.1-1.1,0.4C305.9,263.6,305.7,264,305.7,264.5z"/>
					<path d="M313.2,267l0.1,0.9c-0.3,0.1-0.5,0.1-0.7,0.1c-0.4,0-0.6-0.1-0.8-0.2c-0.2-0.1-0.3-0.3-0.4-0.4
						c-0.1-0.2-0.1-0.6-0.1-1.1v-3.3h-0.7v-0.8h0.7v-1.4l1-0.6v2h1v0.8h-1v3.3c0,0.3,0,0.5,0.1,0.5s0.1,0.1,0.2,0.2
						c0.1,0,0.2,0.1,0.3,0.1C312.9,267,313,267,313.2,267z"/>
					<path d="M318.1,266l1,0.1c-0.2,0.6-0.4,1-0.9,1.4c-0.4,0.3-1,0.5-1.6,0.5c-0.8,0-1.5-0.3-2-0.8c-0.5-0.5-0.7-1.2-0.7-2.2
						c0-1,0.2-1.7,0.7-2.2c0.5-0.5,1.1-0.8,1.9-0.8c0.8,0,1.4,0.3,1.9,0.8c0.5,0.5,0.7,1.3,0.7,2.2c0,0.1,0,0.1,0,0.3h-4.3
						c0,0.6,0.2,1.1,0.5,1.4c0.3,0.3,0.7,0.5,1.2,0.5c0.4,0,0.7-0.1,0.9-0.3C317.7,266.7,317.9,266.4,318.1,266z M314.9,264.5h3.2
						c0-0.5-0.2-0.8-0.4-1.1c-0.3-0.4-0.7-0.6-1.2-0.6c-0.4,0-0.8,0.1-1.1,0.4C315.1,263.6,314.9,264,314.9,264.5z"/>
					<path d="M324,267.9v-0.7c-0.4,0.6-0.9,0.8-1.6,0.8c-0.5,0-0.9-0.1-1.3-0.4c-0.4-0.3-0.7-0.6-0.9-1c-0.2-0.5-0.3-1-0.3-1.5
						c0-0.6,0.1-1.1,0.3-1.5c0.2-0.5,0.5-0.8,0.9-1.1c0.4-0.2,0.8-0.4,1.3-0.4c0.3,0,0.7,0.1,0.9,0.2c0.3,0.1,0.5,0.3,0.7,0.6V260h1
						v7.9H324z M320.9,265c0,0.7,0.2,1.3,0.5,1.6c0.3,0.4,0.7,0.5,1.1,0.5c0.4,0,0.8-0.2,1.1-0.5s0.4-0.9,0.4-1.6
						c0-0.8-0.2-1.4-0.5-1.7s-0.7-0.5-1.1-0.5c-0.4,0-0.8,0.2-1.1,0.5C321.1,263.7,320.9,264.3,320.9,265z"/>
					<path d="M333.2,267.2c-0.4,0.3-0.7,0.5-1,0.6c-0.3,0.1-0.7,0.2-1.1,0.2c-0.6,0-1.1-0.2-1.4-0.5c-0.3-0.3-0.5-0.7-0.5-1.2
						c0-0.3,0.1-0.5,0.2-0.8c0.1-0.2,0.3-0.4,0.5-0.6s0.4-0.2,0.7-0.3c0.2-0.1,0.5-0.1,0.9-0.1c0.8-0.1,1.4-0.2,1.7-0.3
						c0-0.1,0-0.2,0-0.3c0-0.4-0.1-0.7-0.3-0.8c-0.2-0.2-0.6-0.3-1.1-0.3c-0.5,0-0.8,0.1-1,0.2c-0.2,0.2-0.4,0.4-0.5,0.8l-0.9-0.1
						c0.1-0.4,0.2-0.7,0.4-1c0.2-0.2,0.5-0.4,0.9-0.6c0.4-0.1,0.8-0.2,1.3-0.2c0.5,0,0.9,0.1,1.2,0.2c0.3,0.1,0.5,0.3,0.7,0.4
						c0.1,0.2,0.2,0.4,0.3,0.7c0,0.2,0,0.5,0,0.9v1.3c0,0.9,0,1.5,0.1,1.7c0,0.2,0.1,0.5,0.2,0.7h-1
						C333.2,267.7,333.2,267.4,333.2,267.2z M333.1,265c-0.4,0.1-0.9,0.3-1.6,0.4c-0.4,0.1-0.7,0.1-0.8,0.2
						c-0.2,0.1-0.3,0.2-0.4,0.3c-0.1,0.1-0.1,0.3-0.1,0.5c0,0.3,0.1,0.5,0.3,0.6s0.5,0.3,0.9,0.3c0.4,0,0.7-0.1,1-0.2
						c0.3-0.2,0.5-0.4,0.6-0.7c0.1-0.2,0.2-0.5,0.2-1V265z"/>
					<path d="M339.3,267.9V267c-0.4,0.6-1,1-1.8,1c-0.3,0-0.7-0.1-0.9-0.2s-0.5-0.3-0.6-0.5c-0.1-0.2-0.2-0.4-0.3-0.7
						c0-0.2-0.1-0.5-0.1-0.9v-3.5h1v3.2c0,0.5,0,0.8,0.1,1c0.1,0.3,0.2,0.5,0.4,0.6s0.4,0.2,0.7,0.2s0.6-0.1,0.8-0.2
						c0.3-0.1,0.4-0.4,0.5-0.6c0.1-0.3,0.2-0.6,0.2-1.1v-3.1h1v5.7H339.3z"/>
					<path d="M343.8,267l0.1,0.9c-0.3,0.1-0.5,0.1-0.7,0.1c-0.4,0-0.6-0.1-0.8-0.2c-0.2-0.1-0.3-0.3-0.4-0.4
						c-0.1-0.2-0.1-0.6-0.1-1.1v-3.3h-0.7v-0.8h0.7v-1.4l1-0.6v2h1v0.8h-1v3.3c0,0.3,0,0.5,0.1,0.5s0.1,0.1,0.2,0.2
						c0.1,0,0.2,0.1,0.3,0.1C343.5,267,343.6,267,343.8,267z"/>
					<path d="M344.4,265c0-1.1,0.3-1.8,0.9-2.3c0.5-0.4,1.1-0.6,1.8-0.6c0.8,0,1.4,0.3,1.9,0.8c0.5,0.5,0.7,1.2,0.7,2.1
						c0,0.7-0.1,1.3-0.3,1.7c-0.2,0.4-0.5,0.7-1,1c-0.4,0.2-0.9,0.3-1.4,0.3c-0.8,0-1.4-0.3-1.9-0.8
						C344.6,266.7,344.4,266,344.4,265z M345.4,265c0,0.7,0.2,1.3,0.5,1.6c0.3,0.4,0.7,0.5,1.2,0.5c0.5,0,0.9-0.2,1.2-0.5
						c0.3-0.4,0.5-0.9,0.5-1.7c0-0.7-0.2-1.2-0.5-1.6s-0.7-0.5-1.2-0.5c-0.5,0-0.9,0.2-1.2,0.5C345.5,263.7,345.4,264.3,345.4,265z"
						/>
					<path d="M350.8,267.9v-5.7h0.9v0.8c0.2-0.3,0.4-0.5,0.7-0.7c0.3-0.2,0.6-0.3,1-0.3c0.4,0,0.8,0.1,1,0.3
						c0.3,0.2,0.5,0.4,0.6,0.7c0.5-0.7,1-1,1.8-1c0.6,0,1,0.2,1.3,0.5c0.3,0.3,0.5,0.8,0.5,1.4v3.9h-1v-3.6c0-0.4,0-0.7-0.1-0.8
						s-0.2-0.3-0.3-0.4s-0.4-0.2-0.6-0.2c-0.4,0-0.7,0.1-1,0.4c-0.3,0.3-0.4,0.7-0.4,1.3v3.3h-1v-3.7c0-0.4-0.1-0.8-0.2-1
						c-0.2-0.2-0.4-0.3-0.8-0.3c-0.3,0-0.5,0.1-0.8,0.2c-0.2,0.1-0.4,0.4-0.5,0.6s-0.2,0.7-0.2,1.2v3H350.8z"/>
					<path d="M363.7,267.2c-0.4,0.3-0.7,0.5-1,0.6c-0.3,0.1-0.7,0.2-1.1,0.2c-0.6,0-1.1-0.2-1.4-0.5c-0.3-0.3-0.5-0.7-0.5-1.2
						c0-0.3,0.1-0.5,0.2-0.8c0.1-0.2,0.3-0.4,0.5-0.6s0.4-0.2,0.7-0.3c0.2-0.1,0.5-0.1,0.9-0.1c0.8-0.1,1.4-0.2,1.7-0.3
						c0-0.1,0-0.2,0-0.3c0-0.4-0.1-0.7-0.3-0.8c-0.2-0.2-0.6-0.3-1.1-0.3c-0.5,0-0.8,0.1-1,0.2c-0.2,0.2-0.4,0.4-0.5,0.8l-0.9-0.1
						c0.1-0.4,0.2-0.7,0.4-1c0.2-0.2,0.5-0.4,0.9-0.6c0.4-0.1,0.8-0.2,1.3-0.2c0.5,0,0.9,0.1,1.2,0.2c0.3,0.1,0.5,0.3,0.7,0.4
						c0.1,0.2,0.2,0.4,0.3,0.7c0,0.2,0,0.5,0,0.9v1.3c0,0.9,0,1.5,0.1,1.7c0,0.2,0.1,0.5,0.2,0.7h-1
						C363.8,267.7,363.7,267.4,363.7,267.2z M363.6,265c-0.4,0.1-0.9,0.3-1.6,0.4c-0.4,0.1-0.7,0.1-0.8,0.2
						c-0.2,0.1-0.3,0.2-0.4,0.3c-0.1,0.1-0.1,0.3-0.1,0.5c0,0.3,0.1,0.5,0.3,0.6s0.5,0.3,0.9,0.3c0.4,0,0.7-0.1,1-0.2
						c0.3-0.2,0.5-0.4,0.6-0.7c0.1-0.2,0.2-0.5,0.2-1V265z"/>
					<path d="M368.2,267l0.1,0.9c-0.3,0.1-0.5,0.1-0.7,0.1c-0.4,0-0.6-0.1-0.8-0.2c-0.2-0.1-0.3-0.3-0.4-0.4
						c-0.1-0.2-0.1-0.6-0.1-1.1v-3.3h-0.7v-0.8h0.7v-1.4l1-0.6v2h1v0.8h-1v3.3c0,0.3,0,0.5,0.1,0.5s0.1,0.1,0.2,0.2
						c0.1,0,0.2,0.1,0.3,0.1C367.9,267,368,267,368.2,267z"/>
					<path d="M369.2,261.1V260h1v1.1H369.2z M369.2,267.9v-5.7h1v5.7H369.2z"/>
					<path d="M375.3,265.8l1,0.1c-0.1,0.7-0.4,1.2-0.8,1.5s-1,0.6-1.6,0.6c-0.8,0-1.4-0.3-1.9-0.8c-0.5-0.5-0.7-1.2-0.7-2.2
						c0-0.6,0.1-1.2,0.3-1.6s0.5-0.8,0.9-1s0.9-0.3,1.4-0.3c0.6,0,1.1,0.2,1.5,0.5c0.4,0.3,0.6,0.8,0.8,1.3l-0.9,0.1
						c-0.1-0.4-0.2-0.7-0.5-0.9s-0.5-0.3-0.8-0.3c-0.5,0-0.9,0.2-1.2,0.5c-0.3,0.3-0.5,0.9-0.5,1.7c0,0.8,0.1,1.3,0.4,1.7
						c0.3,0.3,0.7,0.5,1.1,0.5c0.4,0,0.7-0.1,1-0.3C375.1,266.6,375.3,266.3,375.3,265.8z"/>
					<path d="M380.8,267.2c-0.4,0.3-0.7,0.5-1,0.6c-0.3,0.1-0.7,0.2-1.1,0.2c-0.6,0-1.1-0.2-1.4-0.5c-0.3-0.3-0.5-0.7-0.5-1.2
						c0-0.3,0.1-0.5,0.2-0.8c0.1-0.2,0.3-0.4,0.5-0.6s0.4-0.2,0.7-0.3c0.2-0.1,0.5-0.1,0.9-0.1c0.8-0.1,1.4-0.2,1.7-0.3
						c0-0.1,0-0.2,0-0.3c0-0.4-0.1-0.7-0.3-0.8c-0.2-0.2-0.6-0.3-1.1-0.3c-0.5,0-0.8,0.1-1,0.2c-0.2,0.2-0.4,0.4-0.5,0.8l-0.9-0.1
						c0.1-0.4,0.2-0.7,0.4-1c0.2-0.2,0.5-0.4,0.9-0.6c0.4-0.1,0.8-0.2,1.3-0.2c0.5,0,0.9,0.1,1.2,0.2c0.3,0.1,0.5,0.3,0.7,0.4
						c0.1,0.2,0.2,0.4,0.3,0.7c0,0.2,0,0.5,0,0.9v1.3c0,0.9,0,1.5,0.1,1.7c0,0.2,0.1,0.5,0.2,0.7h-1
						C380.9,267.7,380.9,267.4,380.8,267.2z M380.7,265c-0.4,0.1-0.9,0.3-1.6,0.4c-0.4,0.1-0.7,0.1-0.8,0.2
						c-0.2,0.1-0.3,0.2-0.4,0.3c-0.1,0.1-0.1,0.3-0.1,0.5c0,0.3,0.1,0.5,0.3,0.6s0.5,0.3,0.9,0.3c0.4,0,0.7-0.1,1-0.2
						c0.3-0.2,0.5-0.4,0.6-0.7c0.1-0.2,0.2-0.5,0.2-1V265z"/>
					<path d="M383.2,267.9V260h1v7.9H383.2z"/>
					<path d="M385.6,267.9V260h1v7.9H385.6z"/>
					<path d="M388.1,270.1l-0.1-0.9c0.2,0.1,0.4,0.1,0.6,0.1c0.2,0,0.4,0,0.5-0.1s0.2-0.2,0.3-0.3c0.1-0.1,0.2-0.3,0.3-0.7
						c0-0.1,0-0.1,0.1-0.2l-2.2-5.7h1l1.2,3.3c0.2,0.4,0.3,0.9,0.4,1.3c0.1-0.4,0.2-0.9,0.4-1.3l1.2-3.3h1l-2.2,5.8
						c-0.2,0.6-0.4,1.1-0.5,1.3c-0.2,0.3-0.4,0.6-0.6,0.7c-0.2,0.1-0.5,0.2-0.8,0.2C388.5,270.2,388.3,270.1,388.1,270.1z"/>
					<path d="M394.2,270.2h-0.7c1.1-1.7,1.6-3.4,1.6-5.2c0-0.7-0.1-1.3-0.2-2c-0.1-0.5-0.3-1.1-0.5-1.5c-0.1-0.3-0.4-0.9-0.9-1.6
						h0.7c0.7,0.9,1.2,1.8,1.5,2.7c0.3,0.8,0.4,1.6,0.4,2.4c0,1-0.2,1.9-0.6,2.8C395.2,268.7,394.8,269.5,394.2,270.2z"/>
				</g>
			</g>
		</g>
	</g>
</g>
<g>
	<g>
		<g>
			<g>
				<g>
					<g enable-background="new    ">
						<path d="M0.8,167.9V160h3c0.6,0,1.1,0.1,1.4,0.2s0.6,0.4,0.9,0.7c0.2,0.3,0.3,0.7,0.3,1c0,0.3-0.1,0.7-0.3,1s-0.5,0.5-0.8,0.7
							c0.5,0.1,0.8,0.4,1.1,0.7c0.3,0.3,0.4,0.7,0.4,1.2c0,0.4-0.1,0.7-0.2,1s-0.3,0.6-0.6,0.7s-0.5,0.3-0.9,0.4s-0.8,0.1-1.3,0.1
							H0.8z M1.8,163.3h1.7c0.5,0,0.8,0,1-0.1c0.3-0.1,0.5-0.2,0.6-0.4s0.2-0.4,0.2-0.7c0-0.3-0.1-0.5-0.2-0.7
							c-0.1-0.2-0.3-0.3-0.5-0.4c-0.2-0.1-0.6-0.1-1.2-0.1H1.8V163.3z M1.8,166.9h2c0.3,0,0.6,0,0.7,0c0.2,0,0.4-0.1,0.6-0.2
							c0.2-0.1,0.3-0.2,0.4-0.4c0.1-0.2,0.2-0.4,0.2-0.7c0-0.3-0.1-0.5-0.2-0.8s-0.4-0.4-0.6-0.5s-0.7-0.1-1.2-0.1H1.8V166.9z"/>
						<path d="M7.9,164c0-1.3,0.4-2.3,1.1-3.1c0.7-0.7,1.6-1.1,2.7-1.1c0.7,0,1.4,0.2,2,0.5c0.6,0.3,1,0.8,1.3,1.5s0.5,1.3,0.5,2.1
							c0,0.8-0.2,1.5-0.5,2.1c-0.3,0.6-0.8,1.1-1.4,1.4c-0.6,0.3-1.2,0.5-1.9,0.5c-0.7,0-1.4-0.2-2-0.5c-0.6-0.4-1-0.8-1.3-1.5
							S7.9,164.7,7.9,164z M8.9,164c0,0.9,0.3,1.7,0.8,2.2c0.5,0.5,1.1,0.8,1.9,0.8c0.8,0,1.4-0.3,1.9-0.8c0.5-0.6,0.8-1.3,0.8-2.3
							c0-0.6-0.1-1.2-0.3-1.7c-0.2-0.5-0.5-0.8-1-1.1c-0.4-0.3-0.9-0.4-1.4-0.4c-0.7,0-1.4,0.3-1.9,0.8C9.2,162,8.9,162.9,8.9,164z"
							/>
						<path d="M16.7,167.9V160h3c0.5,0,0.9,0,1.2,0.1c0.4,0.1,0.7,0.2,1,0.4s0.5,0.4,0.6,0.8s0.2,0.7,0.2,1.1c0,0.7-0.2,1.2-0.6,1.7
							c-0.4,0.5-1.2,0.7-2.3,0.7h-2v3.2H16.7z M17.8,163.7h2c0.7,0,1.2-0.1,1.4-0.4c0.3-0.3,0.4-0.6,0.4-1.1c0-0.3-0.1-0.6-0.2-0.8
							s-0.4-0.4-0.7-0.5c-0.2,0-0.5-0.1-1-0.1h-2V163.7z"/>
						<path d="M26.1,167.9v-6.9h-2.6V160h6.2v0.9h-2.6v6.9H26.1z"/>
						<path d="M30.8,167.9V160h1.1l4.1,6.2V160h1v7.9h-1.1l-4.1-6.2v6.2H30.8z"/>
						<path d="M38.9,167.9v-1.1H40v1.1c0,0.4-0.1,0.7-0.2,1c-0.1,0.3-0.4,0.4-0.7,0.6l-0.3-0.4c0.2-0.1,0.4-0.2,0.5-0.4
							s0.2-0.4,0.2-0.7H38.9z"/>
						<path d="M41.7,167.9V160h1v3.9l3.9-3.9h1.4l-3.3,3.2l3.4,4.7h-1.4l-2.8-4l-1.3,1.3v2.7H41.7z"/>
						<path d="M49.1,167.9V160h5.7v0.9h-4.6v2.4h4.4v0.9h-4.4v2.7H55v0.9H49.1z"/>
						<path d="M56.5,167.9V160h5.7v0.9h-4.6v2.4h4.4v0.9h-4.4v2.7h4.8v0.9H56.5z"/>
					</g>
					<g enable-background="new    ">
						<path d="M63.8,167.9V160h3c0.5,0,0.9,0,1.2,0.1c0.4,0.1,0.7,0.2,1,0.4s0.5,0.4,0.6,0.8s0.2,0.7,0.2,1.1c0,0.7-0.2,1.2-0.6,1.7
							c-0.4,0.5-1.2,0.7-2.3,0.7h-2v3.2H63.8z M64.9,163.7h2c0.7,0,1.2-0.1,1.4-0.4c0.3-0.3,0.4-0.6,0.4-1.1c0-0.3-0.1-0.6-0.2-0.8
							s-0.4-0.4-0.7-0.5c-0.2,0-0.5-0.1-1-0.1h-2V163.7z"/>
					</g>
					<g enable-background="new    ">
						<path d="M69.8,167.9v-1.1H71v1.1c0,0.4-0.1,0.7-0.2,1c-0.1,0.3-0.4,0.4-0.7,0.6l-0.3-0.4c0.2-0.1,0.4-0.2,0.5-0.4
							s0.2-0.4,0.2-0.7H69.8z"/>
						<path d="M72.8,167.9V160h1.1l4.1,6.2V160h1v7.9h-1.1l-4.1-6.2v6.2H72.8z"/>
						<path d="M80.4,164c0-1.3,0.4-2.3,1.1-3.1c0.7-0.7,1.6-1.1,2.7-1.1c0.7,0,1.4,0.2,2,0.5c0.6,0.3,1,0.8,1.3,1.5s0.5,1.3,0.5,2.1
							c0,0.8-0.2,1.5-0.5,2.1c-0.3,0.6-0.8,1.1-1.4,1.4c-0.6,0.3-1.2,0.5-1.9,0.5c-0.7,0-1.4-0.2-2-0.5c-0.6-0.4-1-0.8-1.3-1.5
							S80.4,164.7,80.4,164z M81.5,164c0,0.9,0.3,1.7,0.8,2.2c0.5,0.5,1.1,0.8,1.9,0.8c0.8,0,1.4-0.3,1.9-0.8
							c0.5-0.6,0.8-1.3,0.8-2.3c0-0.6-0.1-1.2-0.3-1.7c-0.2-0.5-0.5-0.8-1-1.1c-0.4-0.3-0.9-0.4-1.4-0.4c-0.7,0-1.4,0.3-1.9,0.8
							C81.7,162,81.5,162.9,81.5,164z"/>
					</g>
				</g>
			</g>
		</g>
	</g>
	<g>
		<g>
			<g>
				<g>
					<g enable-background="new    ">
						<path d="M0,180.9l3-7.9h1.1l3.2,7.9H6.2l-0.9-2.4H2l-0.9,2.4H0z M2.3,177.6h2.7l-0.8-2.2c-0.3-0.7-0.4-1.2-0.6-1.6
							c-0.1,0.5-0.2,1-0.4,1.5L2.3,177.6z"/>
						<path d="M8.4,180.9V173h1v7.9H8.4z"/>
						<path d="M11.2,180.9V173h1.1l4.1,6.2V173h1v7.9h-1.1l-4.1-6.2v6.2H11.2z"/>
						<path d="M18.3,180.9l3-7.9h1.1l3.2,7.9h-1.2l-0.9-2.4h-3.3l-0.9,2.4H18.3z M20.6,177.6h2.7l-0.8-2.2c-0.3-0.7-0.4-1.2-0.6-1.6
							c-0.1,0.5-0.2,1-0.4,1.5L20.6,177.6z"/>
						<path d="M26.6,180.9v-1.1h1.1v1.1c0,0.4-0.1,0.7-0.2,1c-0.1,0.3-0.4,0.4-0.7,0.6l-0.3-0.4c0.2-0.1,0.4-0.2,0.5-0.4
							s0.2-0.4,0.2-0.7H26.6z"/>
						<path d="M32.8,180.9h-1v-6.2c-0.2,0.2-0.5,0.4-0.9,0.7c-0.4,0.2-0.7,0.4-1,0.5v-0.9c0.5-0.3,1-0.6,1.4-0.9
							c0.4-0.4,0.7-0.7,0.9-1.1h0.6V180.9z"/>
						<path d="M35.8,180.9v-1.1h1.1v1.1c0,0.4-0.1,0.7-0.2,1c-0.1,0.3-0.4,0.4-0.7,0.6l-0.3-0.4c0.2-0.1,0.4-0.2,0.5-0.4
							s0.2-0.4,0.2-0.7H35.8z"/>
						<path d="M43.4,179.9v0.9h-5.2c0-0.2,0-0.5,0.1-0.7c0.1-0.4,0.3-0.7,0.6-1c0.3-0.3,0.7-0.7,1.3-1.2c0.9-0.7,1.4-1.3,1.7-1.7
							c0.3-0.4,0.5-0.8,0.5-1.2c0-0.4-0.1-0.7-0.4-1s-0.6-0.4-1.1-0.4c-0.5,0-0.8,0.1-1.1,0.4c-0.3,0.3-0.4,0.7-0.4,1.2l-1-0.1
							c0.1-0.7,0.3-1.3,0.8-1.7s1-0.6,1.8-0.6c0.8,0,1.4,0.2,1.8,0.6c0.4,0.4,0.7,0.9,0.7,1.6c0,0.3-0.1,0.6-0.2,0.9
							c-0.1,0.3-0.3,0.6-0.6,1c-0.3,0.3-0.8,0.8-1.5,1.4c-0.6,0.5-1,0.8-1.1,1c-0.2,0.2-0.3,0.3-0.4,0.5H43.4z"/>
					</g>
				</g>
			</g>
		</g>
	</g>
</g>
<g>
	<g>
		<g>
			<g>
				<g>
					<g enable-background="new    ">
						<path d="M83.7,63.6l3-7.9h1.1l3.2,7.9h-1.2L89,61.3h-3.3l-0.9,2.4H83.7z M86,60.4h2.7l-0.8-2.2c-0.3-0.7-0.4-1.2-0.6-1.6
							c-0.1,0.5-0.2,1-0.4,1.5L86,60.4z"/>
						<path d="M95.2,63.6h-1v-6.2c-0.2,0.2-0.5,0.4-0.9,0.7c-0.4,0.2-0.7,0.4-1,0.5v-0.9c0.5-0.3,1-0.6,1.4-0.9
							c0.4-0.4,0.7-0.7,0.9-1.1h0.6V63.6z"/>
					</g>
				</g>
			</g>
		</g>
	</g>
	<g>
		<g>
			<g>
				<g>
					<g enable-background="new    ">
						<path d="M159.3,34.6l3-7.9h1.1l3.2,7.9h-1.2l-0.9-2.4h-3.3l-0.9,2.4H159.3z M161.6,31.4h2.7l-0.8-2.2
							c-0.3-0.7-0.4-1.2-0.6-1.6c-0.1,0.5-0.2,1-0.4,1.5L161.6,31.4z"/>
						<path d="M172.2,33.7v0.9H167c0-0.2,0-0.5,0.1-0.7c0.1-0.4,0.3-0.7,0.6-1c0.3-0.3,0.7-0.7,1.3-1.2c0.9-0.7,1.4-1.3,1.7-1.7
							c0.3-0.4,0.5-0.8,0.5-1.2c0-0.4-0.1-0.7-0.4-1s-0.6-0.4-1.1-0.4c-0.5,0-0.8,0.1-1.1,0.4c-0.3,0.3-0.4,0.7-0.4,1.2l-1-0.1
							c0.1-0.7,0.3-1.3,0.8-1.7s1-0.6,1.8-0.6c0.8,0,1.4,0.2,1.8,0.6c0.4,0.4,0.7,0.9,0.7,1.6c0,0.3-0.1,0.6-0.2,0.9
							c-0.1,0.3-0.3,0.6-0.6,1c-0.3,0.3-0.8,0.8-1.5,1.4c-0.6,0.5-1,0.8-1.1,1c-0.2,0.2-0.3,0.3-0.4,0.5H172.2z"/>
					</g>
				</g>
			</g>
		</g>
	</g>
	<ellipse fill="none" stroke="#000000" cx="103.7" cy="69.6" rx="40.4" ry="40.3"/>
	<polygon fill="none" stroke="#000000" points="190.9,70.1 103.9,70.1 131.9,0.5 190.9,0.5 	"/>
</g>
<g>
	<g>
		<g>
			<g>
				<g>
					<g enable-background="new    ">
						<path d="M286.7,59.6l3-7.9h1.1l3.2,7.9h-1.2l-0.9-2.4h-3.3l-0.9,2.4H286.7z M289,56.4h2.7l-0.8-2.2c-0.3-0.7-0.4-1.2-0.6-1.6
							c-0.1,0.5-0.2,1-0.4,1.5L289,56.4z"/>
						<path d="M298.2,59.6h-1v-6.2c-0.2,0.2-0.5,0.4-0.9,0.7c-0.4,0.2-0.7,0.4-1,0.5v-0.9c0.5-0.3,1-0.6,1.4-0.9
							c0.4-0.4,0.7-0.7,0.9-1.1h0.6V59.6z"/>
					</g>
				</g>
			</g>
		</g>
	</g>
	<g>
		<g>
			<g>
				<g>
					<g enable-background="new    ">
						<path d="M362.6,29.6l3-7.9h1.1l3.2,7.9h-1.2l-0.9-2.4h-3.3l-0.9,2.4H362.6z M364.8,26.4h2.7l-0.8-2.2
							c-0.3-0.7-0.4-1.2-0.6-1.6c-0.1,0.5-0.2,1-0.4,1.5L364.8,26.4z"/>
						<path d="M375.4,28.7v0.9h-5.2c0-0.2,0-0.5,0.1-0.7c0.1-0.4,0.3-0.7,0.6-1c0.3-0.3,0.7-0.7,1.3-1.2c0.9-0.7,1.4-1.3,1.7-1.7
							c0.3-0.4,0.5-0.8,0.5-1.2c0-0.4-0.1-0.7-0.4-1c-0.3-0.3-0.6-0.4-1.1-0.4c-0.5,0-0.8,0.1-1.1,0.4s-0.4,0.7-0.4,1.2l-1-0.1
							c0.1-0.7,0.3-1.3,0.8-1.7c0.4-0.4,1-0.6,1.8-0.6c0.8,0,1.4,0.2,1.8,0.6s0.7,0.9,0.7,1.6c0,0.3-0.1,0.6-0.2,0.9
							c-0.1,0.3-0.3,0.6-0.6,1c-0.3,0.3-0.8,0.8-1.5,1.4c-0.6,0.5-1,0.8-1.1,1c-0.2,0.2-0.3,0.3-0.4,0.5H375.4z"/>
					</g>
				</g>
			</g>
		</g>
	</g>
	<g>
		<g>
			<g>
				<g>
					<g enable-background="new    ">
						<path d="M323.9,59.6l3-7.9h1.1l3.2,7.9h-1.2l-0.9-2.4h-3.3l-0.9,2.4H323.9z M326.2,56.4h2.7l-0.8-2.2
							c-0.3-0.7-0.4-1.2-0.6-1.6c-0.1,0.5-0.2,1-0.4,1.5L326.2,56.4z"/>
						<path d="M331.7,57.5l1-0.1c0.1,0.5,0.3,0.9,0.6,1.2s0.6,0.4,1,0.4c0.5,0,0.8-0.2,1.2-0.5c0.3-0.3,0.5-0.7,0.5-1.2
							c0-0.4-0.1-0.8-0.4-1.1c-0.3-0.3-0.7-0.4-1.1-0.4c-0.2,0-0.4,0-0.7,0.1l0.1-0.8c0.1,0,0.1,0,0.2,0c0.4,0,0.8-0.1,1.1-0.3
							s0.5-0.5,0.5-1c0-0.4-0.1-0.6-0.4-0.9c-0.2-0.2-0.5-0.3-0.9-0.3c-0.4,0-0.7,0.1-0.9,0.4c-0.3,0.2-0.4,0.6-0.5,1.1l-1-0.2
							c0.1-0.6,0.4-1.1,0.8-1.5c0.4-0.4,0.9-0.5,1.6-0.5c0.4,0,0.8,0.1,1.2,0.3s0.6,0.4,0.8,0.8c0.2,0.3,0.3,0.7,0.3,1
							c0,0.3-0.1,0.6-0.3,0.9s-0.5,0.5-0.8,0.7c0.5,0.1,0.8,0.3,1.1,0.7s0.4,0.8,0.4,1.3c0,0.7-0.3,1.3-0.8,1.7s-1.1,0.7-1.9,0.7
							c-0.7,0-1.3-0.2-1.7-0.6C332.1,58.7,331.8,58.2,331.7,57.5z"/>
					</g>
				</g>
			</g>
		</g>
	</g>
	<ellipse fill="none" stroke="#000000" cx="308.4" cy="69.6" rx="40.4" ry="40.3"/>
	<polygon fill="none" stroke="#000000" points="395.6,70.3 308.5,70.1 336.6,0.5 395.6,0.5 	"/>
	
		<path fill="none" stroke="#000000" stroke-width="1.0579" stroke-linecap="square" stroke-miterlimit="2" stroke-dasharray="5.976" d="
		M342.7,66.1h-27.4L325.4,38c11.1,4.6,17.2,13.2,17.2,27.6"/>
</g>
<path fill="none" stroke="#000000" stroke-width="1.0579" stroke-linecap="square" stroke-miterlimit="2" d="M369.1,224.7h-27.4
	l10.1-28.2c11.1,4.6,17.2,13.2,17.2,27.6"/>
<g>
	<line fill="none" stroke="#000000" x1="226.2" y1="199.2" x2="245.5" y2="199.2"/>
	<line fill="none" stroke="#000000" x1="226.2" y1="201.4" x2="245.5" y2="201.4"/>
	<line fill="none" stroke="#000000" x1="239.9" y1="205.6" x2="247.5" y2="200"/>
	<line fill="none" stroke="#000000" x1="238.7" y1="195.9" x2="247.4" y2="200"/>
</g>
<g>
	<line fill="none" stroke="#000000" x1="226.2" y1="36.6" x2="245.5" y2="36.6"/>
	<line fill="none" stroke="#000000" x1="226.2" y1="38.9" x2="245.5" y2="38.9"/>
	<line fill="none" stroke="#000000" x1="239.9" y1="43.1" x2="247.5" y2="37.4"/>
	<line fill="none" stroke="#000000" x1="238.7" y1="33.3" x2="247.4" y2="37.4"/>
</g>
</svg>
